<svg width="40" height="46" viewBox="0 0 40 46" fill="none" xmlns="http://www.w3.org/2000/svg">
<path d="M2.22038 0.133789H37.7214C38.9439 0.133789 39.9169 1.23917 39.9169 2.62798V42.9885C39.9169 44.3489 38.9439 45.4827 37.7214 45.4827H27.5426V27.91H32.7318L33.5052 21.0793H27.5426V16.7145C27.5426 14.7305 28.0416 13.37 30.5364 13.37H33.7298V7.24789C33.1809 7.16287 31.2848 6.99281 29.0894 6.99281C24.474 6.99281 21.3306 10.1672 21.3306 16.0342V21.0793H16.1164V27.91H21.3306V45.4827H2.22038C1.63579 45.4827 1.07478 45.2208 0.659088 44.7539C0.243397 44.2869 0.00656835 43.6526 0 42.9885V2.62798C0 1.23917 0.997922 0.133789 2.22038 0.133789Z" fill="white"/>
</svg>
