<svg width="298" height="40" viewBox="0 0 298 40" fill="none" xmlns="http://www.w3.org/2000/svg">
<rect width="298" height="40" rx="6" fill="#5470C4"/>
<path d="M59.3906 20.4648H52.2305V28H49.9805V10.9375H60.5508V12.7891H52.2305V18.625H59.3906V20.4648ZM62.0742 21.543C62.0742 20.3008 62.3164 19.1836 62.8008 18.1914C63.293 17.1992 63.9727 16.4336 64.8398 15.8945C65.7148 15.3555 66.7109 15.0859 67.8281 15.0859C69.5547 15.0859 70.9492 15.6836 72.0117 16.8789C73.082 18.0742 73.6172 19.6641 73.6172 21.6484V21.8008C73.6172 23.0352 73.3789 24.1445 72.9023 25.1289C72.4336 26.1055 71.7578 26.8672 70.875 27.4141C70 27.9609 68.9922 28.2344 67.8516 28.2344C66.1328 28.2344 64.7383 27.6367 63.668 26.4414C62.6055 25.2461 62.0742 23.6641 62.0742 21.6953V21.543ZM64.2539 21.8008C64.2539 23.207 64.5781 24.3359 65.2266 25.1875C65.8828 26.0391 66.7578 26.4648 67.8516 26.4648C68.9531 26.4648 69.8281 26.0352 70.4766 25.1758C71.125 24.3086 71.4492 23.0977 71.4492 21.543C71.4492 20.1523 71.1172 19.0273 70.4531 18.168C69.7969 17.3008 68.9219 16.8672 67.8281 16.8672C66.7578 16.8672 65.8945 17.293 65.2383 18.1445C64.582 18.9961 64.2539 20.2148 64.2539 21.8008ZM82.4648 17.2656C82.1367 17.2109 81.7812 17.1836 81.3984 17.1836C79.9766 17.1836 79.0117 17.7891 78.5039 19V28H76.3359V15.3203H78.4453L78.4805 16.7852C79.1914 15.6523 80.1992 15.0859 81.5039 15.0859C81.9258 15.0859 82.2461 15.1406 82.4648 15.25V17.2656ZM86.5078 15.3203L86.5664 16.7266C87.4961 15.6328 88.75 15.0859 90.3281 15.0859C92.1016 15.0859 93.3086 15.7656 93.9492 17.125C94.3711 16.5156 94.918 16.0234 95.5898 15.6484C96.2695 15.2734 97.0703 15.0859 97.9922 15.0859C100.773 15.0859 102.188 16.5586 102.234 19.5039V28H100.066V19.6328C100.066 18.7266 99.8594 18.0508 99.4453 17.6055C99.0312 17.1523 98.3359 16.9258 97.3594 16.9258C96.5547 16.9258 95.8867 17.168 95.3555 17.6523C94.8242 18.1289 94.5156 18.7734 94.4297 19.5859V28H92.25V19.6914C92.25 17.8477 91.3477 16.9258 89.543 16.9258C88.1211 16.9258 87.1484 17.5312 86.625 18.7422V28H84.457V15.3203H86.5078ZM113.344 28C113.219 27.75 113.117 27.3047 113.039 26.6641C112.031 27.7109 110.828 28.2344 109.43 28.2344C108.18 28.2344 107.152 27.8828 106.348 27.1797C105.551 26.4688 105.152 25.5703 105.152 24.4844C105.152 23.1641 105.652 22.1406 106.652 21.4141C107.66 20.6797 109.074 20.3125 110.895 20.3125H113.004V19.3164C113.004 18.5586 112.777 17.957 112.324 17.5117C111.871 17.0586 111.203 16.832 110.32 16.832C109.547 16.832 108.898 17.0273 108.375 17.418C107.852 17.8086 107.59 18.2812 107.59 18.8359H105.41C105.41 18.2031 105.633 17.5938 106.078 17.0078C106.531 16.4141 107.141 15.9453 107.906 15.6016C108.68 15.2578 109.527 15.0859 110.449 15.0859C111.91 15.0859 113.055 15.4531 113.883 16.1875C114.711 16.9141 115.141 17.918 115.172 19.1992V25.0352C115.172 26.1992 115.32 27.125 115.617 27.8125V28H113.344ZM109.746 26.3477C110.426 26.3477 111.07 26.1719 111.68 25.8203C112.289 25.4688 112.73 25.0117 113.004 24.4492V21.8477H111.305C108.648 21.8477 107.32 22.625 107.32 24.1797C107.32 24.8594 107.547 25.3906 108 25.7734C108.453 26.1562 109.035 26.3477 109.746 26.3477ZM125.953 24.6367C125.953 24.0508 125.73 23.5977 125.285 23.2773C124.848 22.9492 124.078 22.668 122.977 22.4336C121.883 22.1992 121.012 21.918 120.363 21.5898C119.723 21.2617 119.246 20.8711 118.934 20.418C118.629 19.9648 118.477 19.4258 118.477 18.8008C118.477 17.7617 118.914 16.8828 119.789 16.1641C120.672 15.4453 121.797 15.0859 123.164 15.0859C124.602 15.0859 125.766 15.457 126.656 16.1992C127.555 16.9414 128.004 17.8906 128.004 19.0469H125.824C125.824 18.4531 125.57 17.9414 125.062 17.5117C124.562 17.082 123.93 16.8672 123.164 16.8672C122.375 16.8672 121.758 17.0391 121.312 17.3828C120.867 17.7266 120.645 18.1758 120.645 18.7305C120.645 19.2539 120.852 19.6484 121.266 19.9141C121.68 20.1797 122.426 20.4336 123.504 20.6758C124.59 20.918 125.469 21.207 126.141 21.543C126.812 21.8789 127.309 22.2852 127.629 22.7617C127.957 23.2305 128.121 23.8047 128.121 24.4844C128.121 25.6172 127.668 26.5273 126.762 27.2148C125.855 27.8945 124.68 28.2344 123.234 28.2344C122.219 28.2344 121.32 28.0547 120.539 27.6953C119.758 27.3359 119.145 26.8359 118.699 26.1953C118.262 25.5469 118.043 24.8477 118.043 24.0977H120.211C120.25 24.8242 120.539 25.4023 121.078 25.832C121.625 26.2539 122.344 26.4648 123.234 26.4648C124.055 26.4648 124.711 26.3008 125.203 25.9727C125.703 25.6367 125.953 25.1914 125.953 24.6367ZM136.371 21.5547C136.371 19.6094 136.832 18.0469 137.754 16.8672C138.676 15.6797 139.883 15.0859 141.375 15.0859C142.859 15.0859 144.035 15.5938 144.902 16.6094V10H147.07V28H145.078L144.973 26.6406C144.105 27.7031 142.898 28.2344 141.352 28.2344C139.883 28.2344 138.684 27.6328 137.754 26.4297C136.832 25.2266 136.371 23.6562 136.371 21.7188V21.5547ZM138.539 21.8008C138.539 23.2383 138.836 24.3633 139.43 25.1758C140.023 25.9883 140.844 26.3945 141.891 26.3945C143.266 26.3945 144.27 25.7773 144.902 24.543V18.7188C144.254 17.5234 143.258 16.9258 141.914 16.9258C140.852 16.9258 140.023 17.3359 139.43 18.1562C138.836 18.9766 138.539 20.1914 138.539 21.8008ZM155.707 28.2344C153.988 28.2344 152.59 27.6719 151.512 26.5469C150.434 25.4141 149.895 23.9023 149.895 22.0117V21.6133C149.895 20.3555 150.133 19.2344 150.609 18.25C151.094 17.2578 151.766 16.4844 152.625 15.9297C153.492 15.3672 154.43 15.0859 155.438 15.0859C157.086 15.0859 158.367 15.6289 159.281 16.7148C160.195 17.8008 160.652 19.3555 160.652 21.3789V22.2812H152.062C152.094 23.5312 152.457 24.543 153.152 25.3164C153.855 26.082 154.746 26.4648 155.824 26.4648C156.59 26.4648 157.238 26.3086 157.77 25.9961C158.301 25.6836 158.766 25.2695 159.164 24.7539L160.488 25.7852C159.426 27.418 157.832 28.2344 155.707 28.2344ZM155.438 16.8672C154.562 16.8672 153.828 17.1875 153.234 17.8281C152.641 18.4609 152.273 19.3516 152.133 20.5H158.484V20.3359C158.422 19.2344 158.125 18.3828 157.594 17.7812C157.062 17.1719 156.344 16.8672 155.438 16.8672ZM179.836 21.8008C179.836 23.7305 179.395 25.2852 178.512 26.4648C177.629 27.6445 176.434 28.2344 174.926 28.2344C173.387 28.2344 172.176 27.7461 171.293 26.7695V32.875H169.125V15.3203H171.105L171.211 16.7266C172.094 15.6328 173.32 15.0859 174.891 15.0859C176.414 15.0859 177.617 15.6602 178.5 16.8086C179.391 17.957 179.836 19.5547 179.836 21.6016V21.8008ZM177.668 21.5547C177.668 20.125 177.363 18.9961 176.754 18.168C176.145 17.3398 175.309 16.9258 174.246 16.9258C172.934 16.9258 171.949 17.5078 171.293 18.6719V24.7305C171.941 25.8867 172.934 26.4648 174.27 26.4648C175.309 26.4648 176.133 26.0547 176.742 25.2344C177.359 24.4062 177.668 23.1797 177.668 21.5547ZM190.43 28C190.305 27.75 190.203 27.3047 190.125 26.6641C189.117 27.7109 187.914 28.2344 186.516 28.2344C185.266 28.2344 184.238 27.8828 183.434 27.1797C182.637 26.4688 182.238 25.5703 182.238 24.4844C182.238 23.1641 182.738 22.1406 183.738 21.4141C184.746 20.6797 186.16 20.3125 187.98 20.3125H190.09V19.3164C190.09 18.5586 189.863 17.957 189.41 17.5117C188.957 17.0586 188.289 16.832 187.406 16.832C186.633 16.832 185.984 17.0273 185.461 17.418C184.938 17.8086 184.676 18.2812 184.676 18.8359H182.496C182.496 18.2031 182.719 17.5938 183.164 17.0078C183.617 16.4141 184.227 15.9453 184.992 15.6016C185.766 15.2578 186.613 15.0859 187.535 15.0859C188.996 15.0859 190.141 15.4531 190.969 16.1875C191.797 16.9141 192.227 17.918 192.258 19.1992V25.0352C192.258 26.1992 192.406 27.125 192.703 27.8125V28H190.43ZM186.832 26.3477C187.512 26.3477 188.156 26.1719 188.766 25.8203C189.375 25.4688 189.816 25.0117 190.09 24.4492V21.8477H188.391C185.734 21.8477 184.406 22.625 184.406 24.1797C184.406 24.8594 184.633 25.3906 185.086 25.7734C185.539 26.1562 186.121 26.3477 186.832 26.3477ZM195.141 21.5547C195.141 19.5781 195.598 18.0078 196.512 16.8438C197.426 15.6719 198.637 15.0859 200.145 15.0859C201.691 15.0859 202.898 15.6328 203.766 16.7266L203.871 15.3203H205.852V27.6953C205.852 29.3359 205.363 30.6289 204.387 31.5742C203.418 32.5195 202.113 32.9922 200.473 32.9922C199.559 32.9922 198.664 32.7969 197.789 32.4062C196.914 32.0156 196.246 31.4805 195.785 30.8008L196.91 29.5C197.84 30.6484 198.977 31.2227 200.32 31.2227C201.375 31.2227 202.195 30.9258 202.781 30.332C203.375 29.7383 203.672 28.9023 203.672 27.8242V26.7344C202.805 27.7344 201.621 28.2344 200.121 28.2344C198.637 28.2344 197.434 27.6367 196.512 26.4414C195.598 25.2461 195.141 23.6172 195.141 21.5547ZM197.32 21.8008C197.32 23.2305 197.613 24.3555 198.199 25.1758C198.785 25.9883 199.605 26.3945 200.66 26.3945C202.027 26.3945 203.031 25.7734 203.672 24.5312V18.7422C203.008 17.5312 202.012 16.9258 200.684 16.9258C199.629 16.9258 198.805 17.3359 198.211 18.1562C197.617 18.9766 197.32 20.1914 197.32 21.8008ZM216.961 28C216.836 27.75 216.734 27.3047 216.656 26.6641C215.648 27.7109 214.445 28.2344 213.047 28.2344C211.797 28.2344 210.77 27.8828 209.965 27.1797C209.168 26.4688 208.77 25.5703 208.77 24.4844C208.77 23.1641 209.27 22.1406 210.27 21.4141C211.277 20.6797 212.691 20.3125 214.512 20.3125H216.621V19.3164C216.621 18.5586 216.395 17.957 215.941 17.5117C215.488 17.0586 214.82 16.832 213.938 16.832C213.164 16.832 212.516 17.0273 211.992 17.418C211.469 17.8086 211.207 18.2812 211.207 18.8359H209.027C209.027 18.2031 209.25 17.5938 209.695 17.0078C210.148 16.4141 210.758 15.9453 211.523 15.6016C212.297 15.2578 213.145 15.0859 214.066 15.0859C215.527 15.0859 216.672 15.4531 217.5 16.1875C218.328 16.9141 218.758 17.918 218.789 19.1992V25.0352C218.789 26.1992 218.938 27.125 219.234 27.8125V28H216.961ZM213.363 26.3477C214.043 26.3477 214.688 26.1719 215.297 25.8203C215.906 25.4688 216.348 25.0117 216.621 24.4492V21.8477H214.922C212.266 21.8477 210.938 22.625 210.938 24.1797C210.938 24.8594 211.164 25.3906 211.617 25.7734C212.07 26.1562 212.652 26.3477 213.363 26.3477ZM224.227 15.3203L224.285 16.7266C225.215 15.6328 226.469 15.0859 228.047 15.0859C229.82 15.0859 231.027 15.7656 231.668 17.125C232.09 16.5156 232.637 16.0234 233.309 15.6484C233.988 15.2734 234.789 15.0859 235.711 15.0859C238.492 15.0859 239.906 16.5586 239.953 19.5039V28H237.785V19.6328C237.785 18.7266 237.578 18.0508 237.164 17.6055C236.75 17.1523 236.055 16.9258 235.078 16.9258C234.273 16.9258 233.605 17.168 233.074 17.6523C232.543 18.1289 232.234 18.7734 232.148 19.5859V28H229.969V19.6914C229.969 17.8477 229.066 16.9258 227.262 16.9258C225.84 16.9258 224.867 17.5312 224.344 18.7422V28H222.176V15.3203H224.227ZM248.496 28.2344C246.777 28.2344 245.379 27.6719 244.301 26.5469C243.223 25.4141 242.684 23.9023 242.684 22.0117V21.6133C242.684 20.3555 242.922 19.2344 243.398 18.25C243.883 17.2578 244.555 16.4844 245.414 15.9297C246.281 15.3672 247.219 15.0859 248.227 15.0859C249.875 15.0859 251.156 15.6289 252.07 16.7148C252.984 17.8008 253.441 19.3555 253.441 21.3789V22.2812H244.852C244.883 23.5312 245.246 24.543 245.941 25.3164C246.645 26.082 247.535 26.4648 248.613 26.4648C249.379 26.4648 250.027 26.3086 250.559 25.9961C251.09 25.6836 251.555 25.2695 251.953 24.7539L253.277 25.7852C252.215 27.418 250.621 28.2344 248.496 28.2344ZM248.227 16.8672C247.352 16.8672 246.617 17.1875 246.023 17.8281C245.43 18.4609 245.062 19.3516 244.922 20.5H251.273V20.3359C251.211 19.2344 250.914 18.3828 250.383 17.7812C249.852 17.1719 249.133 16.8672 248.227 16.8672ZM258.012 15.3203L258.082 16.9141C259.051 15.6953 260.316 15.0859 261.879 15.0859C264.559 15.0859 265.91 16.5977 265.934 19.6211V28H263.766V19.6094C263.758 18.6953 263.547 18.0195 263.133 17.582C262.727 17.1445 262.09 16.9258 261.223 16.9258C260.52 16.9258 259.902 17.1133 259.371 17.4883C258.84 17.8633 258.426 18.3555 258.129 18.9648V28H255.961V15.3203H258.012ZM272.145 12.25V15.3203H274.512V16.9961H272.145V24.8594C272.145 25.3672 272.25 25.75 272.461 26.0078C272.672 26.2578 273.031 26.3828 273.539 26.3828C273.789 26.3828 274.133 26.3359 274.57 26.2422V28C274 28.1562 273.445 28.2344 272.906 28.2344C271.938 28.2344 271.207 27.9414 270.715 27.3555C270.223 26.7695 269.977 25.9375 269.977 24.8594V16.9961H267.668V15.3203H269.977V12.25H272.145ZM276.246 21.543C276.246 20.3008 276.488 19.1836 276.973 18.1914C277.465 17.1992 278.145 16.4336 279.012 15.8945C279.887 15.3555 280.883 15.0859 282 15.0859C283.727 15.0859 285.121 15.6836 286.184 16.8789C287.254 18.0742 287.789 19.6641 287.789 21.6484V21.8008C287.789 23.0352 287.551 24.1445 287.074 25.1289C286.605 26.1055 285.93 26.8672 285.047 27.4141C284.172 27.9609 283.164 28.2344 282.023 28.2344C280.305 28.2344 278.91 27.6367 277.84 26.4414C276.777 25.2461 276.246 23.6641 276.246 21.6953V21.543ZM278.426 21.8008C278.426 23.207 278.75 24.3359 279.398 25.1875C280.055 26.0391 280.93 26.4648 282.023 26.4648C283.125 26.4648 284 26.0352 284.648 25.1758C285.297 24.3086 285.621 23.0977 285.621 21.543C285.621 20.1523 285.289 19.0273 284.625 18.168C283.969 17.3008 283.094 16.8672 282 16.8672C280.93 16.8672 280.066 17.293 279.41 18.1445C278.754 18.9961 278.426 20.2148 278.426 21.8008Z" fill="white"/>
<path fill-rule="evenodd" clip-rule="evenodd" d="M24.0035 25.8347V21.5094C24.0035 20.1058 25.0102 18.9645 26.2505 18.9645H34.5022V16.2696C34.5022 14.9915 33.7924 13.9233 32.8209 13.5747V13.5766L29.9204 13.5503L29.8853 13.4417H16.8656L16.6179 13.5316L12.0256 13.5279L12.0168 13.4885C10.8995 13.7134 10 14.7928 10 16.1815V31.0858C10 32.645 11.1384 33.9999 12.4437 33.9999H32.1446C33.4499 33.9999 34.504 32.7331 34.504 31.1739V28.4509H26.2522C25.0119 28.4509 24.0035 27.2384 24.0035 25.8347Z" fill="white"/>
<path fill-rule="evenodd" clip-rule="evenodd" d="M36.3143 21.011H27.518C26.5886 21.011 25.835 21.888 25.835 22.9694V24.4986C25.835 25.578 26.5886 26.4551 27.518 26.4551H36.3143C37.2437 26.4551 37.9991 25.578 37.9991 24.4986V22.9694C37.9991 21.8862 37.2437 21.011 36.3143 21.011ZM31.1054 24.6747H27.4828V22.7707H31.1054V24.6747Z" fill="white"/>
<path fill-rule="evenodd" clip-rule="evenodd" d="M16.8678 13.4418L28.5172 9.18962L29.8875 13.4418H32.145C32.3822 13.4418 32.6071 13.4962 32.8231 13.573L30.3829 6L11.8135 12.5985L12.019 13.4906C12.1578 13.4624 12.3001 13.4437 12.4442 13.4437H16.8678V13.4418Z" fill="white"/>
</svg>
