<svg width="298" height="40" viewBox="0 0 298 40" fill="none" xmlns="http://www.w3.org/2000/svg">
<rect width="298" height="40" rx="6" fill="#5470C4"/>
<path d="M62.5781 25.7617C62 26.5898 61.1914 27.2109 60.1523 27.625C59.1211 28.0312 57.918 28.2344 56.543 28.2344C55.1523 28.2344 53.918 27.9102 52.8398 27.2617C51.7617 26.6055 50.9258 25.6758 50.332 24.4727C49.7461 23.2695 49.4453 21.875 49.4297 20.2891V18.8008C49.4297 16.2305 50.0273 14.2383 51.2227 12.8242C52.4258 11.4102 54.1133 10.7031 56.2852 10.7031C58.0664 10.7031 59.5 11.1602 60.5859 12.0742C61.6719 12.9805 62.3359 14.2695 62.5781 15.9414H60.3281C59.9062 13.6836 58.5625 12.5547 56.2969 12.5547C54.7891 12.5547 53.6445 13.0859 52.8633 14.1484C52.0898 15.2031 51.6992 16.7344 51.6914 18.7422V20.1367C51.6914 22.0508 52.1289 23.5742 53.0039 24.707C53.8789 25.832 55.0625 26.3945 56.5547 26.3945C57.3984 26.3945 58.1367 26.3008 58.7695 26.1133C59.4023 25.9258 59.9258 25.6094 60.3398 25.1641V21.332H56.3906V19.5039H62.5781V25.7617ZM71.2617 28.2344C69.543 28.2344 68.1445 27.6719 67.0664 26.5469C65.9883 25.4141 65.4492 23.9023 65.4492 22.0117V21.6133C65.4492 20.3555 65.6875 19.2344 66.1641 18.25C66.6484 17.2578 67.3203 16.4844 68.1797 15.9297C69.0469 15.3672 69.9844 15.0859 70.9922 15.0859C72.6406 15.0859 73.9219 15.6289 74.8359 16.7148C75.75 17.8008 76.207 19.3555 76.207 21.3789V22.2812H67.6172C67.6484 23.5312 68.0117 24.543 68.707 25.3164C69.4102 26.082 70.3008 26.4648 71.3789 26.4648C72.1445 26.4648 72.793 26.3086 73.3242 25.9961C73.8555 25.6836 74.3203 25.2695 74.7188 24.7539L76.043 25.7852C74.9805 27.418 73.3867 28.2344 71.2617 28.2344ZM70.9922 16.8672C70.1172 16.8672 69.3828 17.1875 68.7891 17.8281C68.1953 18.4609 67.8281 19.3516 67.6875 20.5H74.0391V20.3359C73.9766 19.2344 73.6797 18.3828 73.1484 17.7812C72.6172 17.1719 71.8984 16.8672 70.9922 16.8672ZM84.8555 17.2656C84.5273 17.2109 84.1719 17.1836 83.7891 17.1836C82.3672 17.1836 81.4023 17.7891 80.8945 19V28H78.7266V15.3203H80.8359L80.8711 16.7852C81.582 15.6523 82.5898 15.0859 83.8945 15.0859C84.3164 15.0859 84.6367 15.1406 84.8555 15.25V17.2656ZM94.2188 28C94.0938 27.75 93.9922 27.3047 93.9141 26.6641C92.9062 27.7109 91.7031 28.2344 90.3047 28.2344C89.0547 28.2344 88.0273 27.8828 87.2227 27.1797C86.4258 26.4688 86.0273 25.5703 86.0273 24.4844C86.0273 23.1641 86.5273 22.1406 87.5273 21.4141C88.5352 20.6797 89.9492 20.3125 91.7695 20.3125H93.8789V19.3164C93.8789 18.5586 93.6523 17.957 93.1992 17.5117C92.7461 17.0586 92.0781 16.832 91.1953 16.832C90.4219 16.832 89.7734 17.0273 89.25 17.418C88.7266 17.8086 88.4648 18.2812 88.4648 18.8359H86.2852C86.2852 18.2031 86.5078 17.5938 86.9531 17.0078C87.4062 16.4141 88.0156 15.9453 88.7812 15.6016C89.5547 15.2578 90.4023 15.0859 91.3242 15.0859C92.7852 15.0859 93.9297 15.4531 94.7578 16.1875C95.5859 16.9141 96.0156 17.918 96.0469 19.1992V25.0352C96.0469 26.1992 96.1953 27.125 96.4922 27.8125V28H94.2188ZM90.6211 26.3477C91.3008 26.3477 91.9453 26.1719 92.5547 25.8203C93.1641 25.4688 93.6055 25.0117 93.8789 24.4492V21.8477H92.1797C89.5234 21.8477 88.1953 22.625 88.1953 24.1797C88.1953 24.8594 88.4219 25.3906 88.875 25.7734C89.3281 26.1562 89.9102 26.3477 90.6211 26.3477ZM101.801 28H99.6328V10H101.801V28Z" fill="white"/>
<path d="M0 11C3.31371 11 6 13.6863 6 17V23C6 26.3137 3.31371 29 0 29V11Z" fill="white"/>
<path d="M17 12.6316C17 16.2878 20.1407 19.2632 24 19.2632C27.8593 19.2632 31 16.2878 31 12.6316C31 8.97537 27.8593 6 24 6C20.1407 6 17 8.97537 17 12.6316ZM36.4444 34H38V32.5263C38 26.8394 33.114 22.2105 27.1111 22.2105H20.8889C14.8844 22.2105 10 26.8394 10 32.5263V34H36.4444Z" fill="white"/>
</svg>
