<svg width="41" height="46" viewBox="0 0 41 46" fill="none" xmlns="http://www.w3.org/2000/svg">
<path fill-rule="evenodd" clip-rule="evenodd" d="M12.6032 0.269836C14.7315 0.158525 15.41 0.133789 20.8315 0.133789C26.2529 0.133789 26.9315 0.160586 29.058 0.269836C31.1845 0.379085 32.636 0.764551 33.9061 1.32317C35.236 1.89415 36.4426 2.7867 37.4405 3.94103C38.4566 5.07269 39.2404 6.44141 39.7412 7.95441C40.2347 9.39733 40.5722 11.0464 40.6702 13.4581C40.7681 15.8802 40.7899 16.6511 40.7899 22.8082C40.7899 28.9674 40.7663 29.7384 40.6702 32.1563C40.574 34.568 40.2347 36.2171 39.7412 37.66C39.2404 39.1732 38.4553 40.5442 37.4405 41.6775C36.4426 42.8318 35.236 43.7223 33.9061 44.2912C32.636 44.8519 31.1845 45.2353 29.0616 45.3466C26.9315 45.4579 26.2529 45.4827 20.8315 45.4827C15.41 45.4827 14.7315 45.4559 12.6032 45.3466C10.4803 45.2374 9.02879 44.8519 7.75871 44.2912C6.42679 43.7222 5.22003 42.8303 4.22243 41.6775C3.20706 40.5451 2.4213 39.1748 1.91996 37.662C1.42825 36.2191 1.09078 34.5701 0.992797 32.1583C0.89482 29.7363 0.873047 28.9654 0.873047 22.8082C0.873047 16.649 0.896634 15.8781 0.992797 13.4622C1.08896 11.0464 1.42825 9.39733 1.91996 7.95441C2.42204 6.44157 3.2084 5.07128 4.22425 3.93897C5.22043 2.78567 6.42598 1.893 7.75689 1.32317C9.02697 0.764551 10.4785 0.381147 12.6013 0.269836H12.6032ZM28.8965 4.35123C26.7918 4.24199 26.1604 4.21931 20.8315 4.21931C15.5026 4.21931 14.8712 4.24199 12.7665 4.35123C10.8196 4.45224 9.76362 4.82121 9.05963 5.13247C8.12885 5.54473 7.46296 6.03327 6.76441 6.82687C6.10224 7.55874 5.59264 8.44971 5.27297 9.43443C4.999 10.2342 4.67422 11.4339 4.58532 13.6457C4.48915 16.0368 4.46919 16.7542 4.46919 22.8082C4.46919 28.8623 4.48915 29.5796 4.58532 31.9708C4.67422 34.1826 4.999 35.3822 5.27297 36.182C5.59231 37.1653 6.10216 38.0578 6.76441 38.7896C7.40853 39.542 8.19416 40.1212 9.05963 40.484C9.76362 40.7952 10.8196 41.1642 12.7665 41.2652C14.8712 41.3745 15.5008 41.3971 20.8315 41.3971C26.1622 41.3971 26.7918 41.3745 28.8965 41.2652C30.8434 41.1642 31.8993 40.7952 32.6033 40.484C33.5341 40.0717 34.2 39.5832 34.8986 38.7896C35.5608 38.0578 36.0707 37.1653 36.39 36.182C36.664 35.3822 36.9887 34.1826 37.0776 31.9708C37.1738 29.5796 37.1938 28.8623 37.1938 22.8082C37.1938 16.7542 37.1738 16.0368 37.0776 13.6457C36.9887 11.4339 36.664 10.2342 36.39 9.43443C36.0271 8.37698 35.5971 7.62048 34.8986 6.82687C34.2543 6.07464 33.4701 5.4957 32.6033 5.13247C31.8993 4.82121 30.8434 4.45224 28.8965 4.35123ZM18.2822 29.7981C19.7059 30.4714 21.2912 30.5623 22.7673 30.0552C24.2434 29.5482 25.5188 28.4746 26.3756 27.0179C27.2324 25.5613 27.6175 23.8118 27.465 22.0684C27.3126 20.325 26.6321 18.6959 25.5399 17.4591C24.8436 16.6686 24.0016 16.0632 23.0747 15.6867C22.1477 15.3102 21.1589 15.1718 20.1792 15.2816C19.1995 15.3914 18.2535 15.7465 17.4092 16.3215C16.5648 16.8966 15.8432 17.6771 15.2963 18.607C14.7494 19.5368 14.3907 20.5929 14.2461 21.6992C14.1016 22.8054 14.1747 23.9343 14.4603 25.0046C14.7458 26.0749 15.2367 27.0599 15.8976 27.8888C16.5585 28.7177 17.3729 29.3698 18.2822 29.7981ZM13.5775 14.5671C14.5301 13.4849 15.661 12.6264 16.9057 12.0407C18.1503 11.455 19.4843 11.1535 20.8315 11.1535C22.1787 11.1535 23.5127 11.455 24.7573 12.0407C26.002 12.6264 27.1329 13.4849 28.0855 14.5671C29.0381 15.6493 29.7937 16.9341 30.3093 18.3482C30.8248 19.7622 31.0902 21.2777 31.0902 22.8082C31.0902 24.3387 30.8248 25.8543 30.3093 27.2683C29.7937 28.6823 29.0381 29.9671 28.0855 31.0494C26.1616 33.235 23.5523 34.4629 20.8315 34.4629C18.1107 34.4629 15.5014 33.235 13.5775 31.0494C11.6536 28.8637 10.5728 25.8993 10.5728 22.8082C10.5728 19.7172 11.6536 16.7528 13.5775 14.5671ZM33.3654 12.8892C33.6014 12.6362 33.7904 12.332 33.9211 11.9945C34.0519 11.6571 34.1216 11.2933 34.1264 10.9246C34.1311 10.556 34.0707 10.19 33.9487 9.84836C33.8267 9.50673 33.6456 9.19637 33.4161 8.93567C33.1866 8.67498 32.9135 8.46924 32.6127 8.33064C32.312 8.19203 31.9899 8.12339 31.6654 8.12876C31.3409 8.13414 31.0207 8.21342 30.7237 8.36192C30.4266 8.51043 30.1588 8.72512 29.9362 8.99331C29.5031 9.51488 29.266 10.2077 29.2752 10.9246C29.2844 11.6416 29.5392 12.3262 29.9854 12.8332C30.4317 13.3402 31.0343 13.6297 31.6654 13.6401C32.2965 13.6506 32.9063 13.3812 33.3654 12.8892Z" fill="white"/>
</svg>
