<svg width="298" height="40" viewBox="0 0 298 40" fill="none" xmlns="http://www.w3.org/2000/svg">
<rect width="298" height="40" rx="6" fill="#5470C4"/>
<path d="M52.2305 20.3203V27H49.9805V9.9375H56.2734C58.1406 9.9375 59.6016 10.4141 60.6562 11.3672C61.7188 12.3203 62.25 13.582 62.25 15.1523C62.25 16.8086 61.7305 18.0859 60.6914 18.9844C59.6602 19.875 58.1797 20.3203 56.25 20.3203H52.2305ZM52.2305 18.4805H56.2734C57.4766 18.4805 58.3984 18.1992 59.0391 17.6367C59.6797 17.0664 60 16.2461 60 15.1758C60 14.1602 59.6797 13.3477 59.0391 12.7383C58.3984 12.1289 57.5195 11.8125 56.4023 11.7891H52.2305V18.4805ZM69.8789 27.2344C68.1602 27.2344 66.7617 26.6719 65.6836 25.5469C64.6055 24.4141 64.0664 22.9023 64.0664 21.0117V20.6133C64.0664 19.3555 64.3047 18.2344 64.7812 17.25C65.2656 16.2578 65.9375 15.4844 66.7969 14.9297C67.6641 14.3672 68.6016 14.0859 69.6094 14.0859C71.2578 14.0859 72.5391 14.6289 73.4531 15.7148C74.3672 16.8008 74.8242 18.3555 74.8242 20.3789V21.2812H66.2344C66.2656 22.5312 66.6289 23.543 67.3242 24.3164C68.0273 25.082 68.918 25.4648 69.9961 25.4648C70.7617 25.4648 71.4102 25.3086 71.9414 24.9961C72.4727 24.6836 72.9375 24.2695 73.3359 23.7539L74.6602 24.7852C73.5977 26.418 72.0039 27.2344 69.8789 27.2344ZM69.6094 15.8672C68.7344 15.8672 68 16.1875 67.4062 16.8281C66.8125 17.4609 66.4453 18.3516 66.3047 19.5H72.6562V19.3359C72.5938 18.2344 72.2969 17.3828 71.7656 16.7812C71.2344 16.1719 70.5156 15.8672 69.6094 15.8672ZM76.8164 20.5547C76.8164 18.6094 77.2773 17.0469 78.1992 15.8672C79.1211 14.6797 80.3281 14.0859 81.8203 14.0859C83.3047 14.0859 84.4805 14.5938 85.3477 15.6094V9H87.5156V27H85.5234L85.418 25.6406C84.5508 26.7031 83.3438 27.2344 81.7969 27.2344C80.3281 27.2344 79.1289 26.6328 78.1992 25.4297C77.2773 24.2266 76.8164 22.6562 76.8164 20.7188V20.5547ZM78.9844 20.8008C78.9844 22.2383 79.2812 23.3633 79.875 24.1758C80.4688 24.9883 81.2891 25.3945 82.3359 25.3945C83.7109 25.3945 84.7148 24.7773 85.3477 23.543V17.7188C84.6992 16.5234 83.7031 15.9258 82.3594 15.9258C81.2969 15.9258 80.4688 16.3359 79.875 17.1562C79.2812 17.9766 78.9844 19.1914 78.9844 20.8008ZM93.2461 27H91.0781V14.3203H93.2461V27ZM90.9023 10.957C90.9023 10.6055 91.0078 10.3086 91.2188 10.0664C91.4375 9.82422 91.7578 9.70312 92.1797 9.70312C92.6016 9.70312 92.9219 9.82422 93.1406 10.0664C93.3594 10.3086 93.4688 10.6055 93.4688 10.957C93.4688 11.3086 93.3594 11.6016 93.1406 11.8359C92.9219 12.0703 92.6016 12.1875 92.1797 12.1875C91.7578 12.1875 91.4375 12.0703 91.2188 11.8359C91.0078 11.6016 90.9023 11.3086 90.9023 10.957ZM96.1992 20.5547C96.1992 18.6094 96.6602 17.0469 97.582 15.8672C98.5039 14.6797 99.7109 14.0859 101.203 14.0859C102.688 14.0859 103.863 14.5938 104.73 15.6094V9H106.898V27H104.906L104.801 25.6406C103.934 26.7031 102.727 27.2344 101.18 27.2344C99.7109 27.2344 98.5117 26.6328 97.582 25.4297C96.6602 24.2266 96.1992 22.6562 96.1992 20.7188V20.5547ZM98.3672 20.8008C98.3672 22.2383 98.6641 23.3633 99.2578 24.1758C99.8516 24.9883 100.672 25.3945 101.719 25.3945C103.094 25.3945 104.098 24.7773 104.73 23.543V17.7188C104.082 16.5234 103.086 15.9258 101.742 15.9258C100.68 15.9258 99.8516 16.3359 99.2578 17.1562C98.6641 17.9766 98.3672 19.1914 98.3672 20.8008ZM109.699 20.543C109.699 19.3008 109.941 18.1836 110.426 17.1914C110.918 16.1992 111.598 15.4336 112.465 14.8945C113.34 14.3555 114.336 14.0859 115.453 14.0859C117.18 14.0859 118.574 14.6836 119.637 15.8789C120.707 17.0742 121.242 18.6641 121.242 20.6484V20.8008C121.242 22.0352 121.004 23.1445 120.527 24.1289C120.059 25.1055 119.383 25.8672 118.5 26.4141C117.625 26.9609 116.617 27.2344 115.477 27.2344C113.758 27.2344 112.363 26.6367 111.293 25.4414C110.23 24.2461 109.699 22.6641 109.699 20.6953V20.543ZM111.879 20.8008C111.879 22.207 112.203 23.3359 112.852 24.1875C113.508 25.0391 114.383 25.4648 115.477 25.4648C116.578 25.4648 117.453 25.0352 118.102 24.1758C118.75 23.3086 119.074 22.0977 119.074 20.543C119.074 19.1523 118.742 18.0273 118.078 17.168C117.422 16.3008 116.547 15.8672 115.453 15.8672C114.383 15.8672 113.52 16.293 112.863 17.1445C112.207 17.9961 111.879 19.2148 111.879 20.8008ZM131.344 23.6367C131.344 23.0508 131.121 22.5977 130.676 22.2773C130.238 21.9492 129.469 21.668 128.367 21.4336C127.273 21.1992 126.402 20.918 125.754 20.5898C125.113 20.2617 124.637 19.8711 124.324 19.418C124.02 18.9648 123.867 18.4258 123.867 17.8008C123.867 16.7617 124.305 15.8828 125.18 15.1641C126.062 14.4453 127.188 14.0859 128.555 14.0859C129.992 14.0859 131.156 14.457 132.047 15.1992C132.945 15.9414 133.395 16.8906 133.395 18.0469H131.215C131.215 17.4531 130.961 16.9414 130.453 16.5117C129.953 16.082 129.32 15.8672 128.555 15.8672C127.766 15.8672 127.148 16.0391 126.703 16.3828C126.258 16.7266 126.035 17.1758 126.035 17.7305C126.035 18.2539 126.242 18.6484 126.656 18.9141C127.07 19.1797 127.816 19.4336 128.895 19.6758C129.98 19.918 130.859 20.207 131.531 20.543C132.203 20.8789 132.699 21.2852 133.02 21.7617C133.348 22.2305 133.512 22.8047 133.512 23.4844C133.512 24.6172 133.059 25.5273 132.152 26.2148C131.246 26.8945 130.07 27.2344 128.625 27.2344C127.609 27.2344 126.711 27.0547 125.93 26.6953C125.148 26.3359 124.535 25.8359 124.09 25.1953C123.652 24.5469 123.434 23.8477 123.434 23.0977H125.602C125.641 23.8242 125.93 24.4023 126.469 24.832C127.016 25.2539 127.734 25.4648 128.625 25.4648C129.445 25.4648 130.102 25.3008 130.594 24.9727C131.094 24.6367 131.344 24.1914 131.344 23.6367Z" fill="white"/>
<path d="M26.8438 4H21.1562C20.2569 4.00003 19.3891 4.33151 18.7188 4.93108C18.0485 5.53065 17.6227 6.35623 17.5227 7.25H14.6562C13.6866 7.25 12.7566 7.63521 12.0709 8.32089C11.3852 9.00657 11 9.93655 11 10.9062V32.8438C11 33.8134 11.3852 34.7434 12.0709 35.4291C12.7566 36.1148 13.6866 36.5 14.6562 36.5H33.3438C33.8239 36.5 34.2993 36.4054 34.7429 36.2217C35.1865 36.0379 35.5896 35.7686 35.9291 35.4291C36.2686 35.0896 36.5379 34.6865 36.7217 34.2429C36.9054 33.7993 37 33.3239 37 32.8438V10.9062C37 10.4261 36.9054 9.95066 36.7217 9.50706C36.5379 9.06347 36.2686 8.66041 35.9291 8.32089C35.5896 7.98138 35.1865 7.71206 34.7429 7.52832C34.2993 7.34457 33.8239 7.25 33.3438 7.25H30.4772C30.3773 6.35623 29.9515 5.53065 29.2812 4.93108C28.6109 4.33151 27.7431 4.00003 26.8438 4ZM21.1562 6.4375H26.8438C27.167 6.4375 27.477 6.5659 27.7055 6.79446C27.9341 7.02302 28.0625 7.33302 28.0625 7.65625C28.0625 7.97948 27.9341 8.28948 27.7055 8.51804C27.477 8.7466 27.167 8.875 26.8438 8.875H21.1562C20.833 8.875 20.523 8.7466 20.2945 8.51804C20.0659 8.28948 19.9375 7.97948 19.9375 7.65625C19.9375 7.33302 20.0659 7.02302 20.2945 6.79446C20.523 6.5659 20.833 6.4375 21.1562 6.4375ZM24.8125 17.4062C24.8125 17.083 24.9409 16.773 25.1695 16.5445C25.398 16.3159 25.708 16.1875 26.0312 16.1875H31.7188C32.042 16.1875 32.352 16.3159 32.5805 16.5445C32.8091 16.773 32.9375 17.083 32.9375 17.4062C32.9375 17.7295 32.8091 18.0395 32.5805 18.268C32.352 18.4966 32.042 18.625 31.7188 18.625H26.0312C25.708 18.625 25.398 18.4966 25.1695 18.268C24.9409 18.0395 24.8125 17.7295 24.8125 17.4062ZM26.0312 25.125H31.7188C32.042 25.125 32.352 25.2534 32.5805 25.482C32.8091 25.7105 32.9375 26.0205 32.9375 26.3438C32.9375 26.667 32.8091 26.977 32.5805 27.2055C32.352 27.4341 32.042 27.5625 31.7188 27.5625H26.0312C25.708 27.5625 25.398 27.4341 25.1695 27.2055C24.9409 26.977 24.8125 26.667 24.8125 26.3438C24.8125 26.0205 24.9409 25.7105 25.1695 25.482C25.398 25.2534 25.708 25.125 26.0312 25.125ZM22.0175 16.6425L18.7675 19.8925C18.539 20.1207 18.2292 20.2489 17.9062 20.2489C17.5833 20.2489 17.2735 20.1207 17.045 19.8925L15.42 18.2675C15.3003 18.1559 15.2042 18.0214 15.1376 17.8719C15.071 17.7224 15.0352 17.561 15.0323 17.3973C15.0294 17.2337 15.0595 17.0712 15.1208 16.9194C15.1821 16.7676 15.2733 16.6298 15.3891 16.5141C15.5048 16.3983 15.6426 16.3071 15.7944 16.2458C15.9462 16.1845 16.1087 16.1544 16.2723 16.1573C16.436 16.1602 16.5974 16.196 16.7469 16.2626C16.8964 16.3292 17.0309 16.4253 17.1425 16.545L17.9062 17.3087L20.295 14.92C20.4066 14.8003 20.5411 14.7042 20.6906 14.6376C20.8401 14.571 21.0015 14.5352 21.1652 14.5323C21.3288 14.5294 21.4913 14.5595 21.6431 14.6208C21.7949 14.6821 21.9327 14.7733 22.0484 14.8891C22.1642 15.0048 22.2554 15.1426 22.3167 15.2944C22.378 15.4462 22.4081 15.6087 22.4052 15.7723C22.4023 15.936 22.3665 16.0974 22.2999 16.2469C22.2333 16.3964 22.1372 16.5309 22.0175 16.6425ZM22.0175 23.8575C22.2457 24.086 22.3739 24.3958 22.3739 24.7188C22.3739 25.0417 22.2457 25.3515 22.0175 25.58L18.7675 28.83C18.539 29.0582 18.2292 29.1864 17.9062 29.1864C17.5833 29.1864 17.2735 29.0582 17.045 28.83L15.42 27.205C15.3003 27.0934 15.2042 26.9589 15.1376 26.8094C15.071 26.6599 15.0352 26.4985 15.0323 26.3348C15.0294 26.1712 15.0595 26.0087 15.1208 25.8569C15.1821 25.7051 15.2733 25.5673 15.3891 25.4516C15.5048 25.3358 15.6426 25.2446 15.7944 25.1833C15.9462 25.122 16.1087 25.0919 16.2723 25.0948C16.436 25.0977 16.5974 25.1335 16.7469 25.2001C16.8964 25.2667 17.0309 25.3628 17.1425 25.4825L17.9062 26.2463L20.295 23.8575C20.5235 23.6293 20.8333 23.5011 21.1562 23.5011C21.4792 23.5011 21.789 23.6293 22.0175 23.8575Z" fill="white"/>
</svg>
