<svg width="298" height="40" viewBox="0 0 298 40" fill="none" xmlns="http://www.w3.org/2000/svg">
<rect width="298" height="40" rx="6" fill="#5470C4"/>
<path d="M55.0078 20.3945C53.0781 19.8398 51.6719 19.1602 50.7891 18.3555C49.9141 17.543 49.4766 16.543 49.4766 15.3555C49.4766 14.0117 50.0117 12.9023 51.082 12.0273C52.1602 11.1445 53.5586 10.7031 55.2773 10.7031C56.4492 10.7031 57.4922 10.9297 58.4062 11.3828C59.3281 11.8359 60.0391 12.4609 60.5391 13.2578C61.0469 14.0547 61.3008 14.9258 61.3008 15.8711H59.0391C59.0391 14.8398 58.7109 14.0312 58.0547 13.4453C57.3984 12.8516 56.4727 12.5547 55.2773 12.5547C54.168 12.5547 53.3008 12.8008 52.6758 13.293C52.0586 13.7773 51.75 14.4531 51.75 15.3203C51.75 16.0156 52.043 16.6055 52.6289 17.0898C53.2227 17.5664 54.2266 18.0039 55.6406 18.4023C57.0625 18.8008 58.1719 19.2422 58.9688 19.7266C59.7734 20.2031 60.3672 20.7617 60.75 21.4023C61.1406 22.043 61.3359 22.7969 61.3359 23.6641C61.3359 25.0469 60.7969 26.1562 59.7188 26.9922C58.6406 27.8203 57.1992 28.2344 55.3945 28.2344C54.2227 28.2344 53.1289 28.0117 52.1133 27.5664C51.0977 27.1133 50.3125 26.4961 49.7578 25.7148C49.2109 24.9336 48.9375 24.0469 48.9375 23.0547H51.1992C51.1992 24.0859 51.5781 24.9023 52.3359 25.5039C53.1016 26.0977 54.1211 26.3945 55.3945 26.3945C56.582 26.3945 57.4922 26.1523 58.125 25.668C58.7578 25.1836 59.0742 24.5234 59.0742 23.6875C59.0742 22.8516 58.7812 22.207 58.1953 21.7539C57.6094 21.293 56.5469 20.8398 55.0078 20.3945ZM69.1523 28.2344C67.4336 28.2344 66.0352 27.6719 64.957 26.5469C63.8789 25.4141 63.3398 23.9023 63.3398 22.0117V21.6133C63.3398 20.3555 63.5781 19.2344 64.0547 18.25C64.5391 17.2578 65.2109 16.4844 66.0703 15.9297C66.9375 15.3672 67.875 15.0859 68.8828 15.0859C70.5312 15.0859 71.8125 15.6289 72.7266 16.7148C73.6406 17.8008 74.0977 19.3555 74.0977 21.3789V22.2812H65.5078C65.5391 23.5312 65.9023 24.543 66.5977 25.3164C67.3008 26.082 68.1914 26.4648 69.2695 26.4648C70.0352 26.4648 70.6836 26.3086 71.2148 25.9961C71.7461 25.6836 72.2109 25.2695 72.6094 24.7539L73.9336 25.7852C72.8711 27.418 71.2773 28.2344 69.1523 28.2344ZM68.8828 16.8672C68.0078 16.8672 67.2734 17.1875 66.6797 17.8281C66.0859 18.4609 65.7188 19.3516 65.5781 20.5H71.9297V20.3359C71.8672 19.2344 71.5703 18.3828 71.0391 17.7812C70.5078 17.1719 69.7891 16.8672 68.8828 16.8672ZM78.668 15.3203L78.7383 16.9141C79.707 15.6953 80.9727 15.0859 82.5352 15.0859C85.2148 15.0859 86.5664 16.5977 86.5898 19.6211V28H84.4219V19.6094C84.4141 18.6953 84.2031 18.0195 83.7891 17.582C83.3828 17.1445 82.7461 16.9258 81.8789 16.9258C81.1758 16.9258 80.5586 17.1133 80.0273 17.4883C79.4961 17.8633 79.082 18.3555 78.7852 18.9648V28H76.6172V15.3203H78.668ZM92.0273 16.8555C92.9883 15.6758 94.2383 15.0859 95.7773 15.0859C98.457 15.0859 99.8086 16.5977 99.832 19.6211V28H97.6641V19.6094C97.6562 18.6953 97.4453 18.0195 97.0312 17.582C96.625 17.1445 95.9883 16.9258 95.1211 16.9258C94.418 16.9258 93.8008 17.1133 93.2695 17.4883C92.7383 17.8633 92.3242 18.3555 92.0273 18.9648V28H89.8594V10H92.0273V16.8555ZM110.906 28C110.781 27.75 110.68 27.3047 110.602 26.6641C109.594 27.7109 108.391 28.2344 106.992 28.2344C105.742 28.2344 104.715 27.8828 103.91 27.1797C103.113 26.4688 102.715 25.5703 102.715 24.4844C102.715 23.1641 103.215 22.1406 104.215 21.4141C105.223 20.6797 106.637 20.3125 108.457 20.3125H110.566V19.3164C110.566 18.5586 110.34 17.957 109.887 17.5117C109.434 17.0586 108.766 16.832 107.883 16.832C107.109 16.832 106.461 17.0273 105.938 17.418C105.414 17.8086 105.152 18.2812 105.152 18.8359H102.973C102.973 18.2031 103.195 17.5938 103.641 17.0078C104.094 16.4141 104.703 15.9453 105.469 15.6016C106.242 15.2578 107.09 15.0859 108.012 15.0859C109.473 15.0859 110.617 15.4531 111.445 16.1875C112.273 16.9141 112.703 17.918 112.734 19.1992V25.0352C112.734 26.1992 112.883 27.125 113.18 27.8125V28H110.906ZM107.309 26.3477C107.988 26.3477 108.633 26.1719 109.242 25.8203C109.852 25.4688 110.293 25.0117 110.566 24.4492V21.8477H108.867C106.211 21.8477 104.883 22.625 104.883 24.1797C104.883 24.8594 105.109 25.3906 105.562 25.7734C106.016 26.1562 106.598 26.3477 107.309 26.3477ZM127.348 28.2344C125.629 28.2344 124.23 27.6719 123.152 26.5469C122.074 25.4141 121.535 23.9023 121.535 22.0117V21.6133C121.535 20.3555 121.773 19.2344 122.25 18.25C122.734 17.2578 123.406 16.4844 124.266 15.9297C125.133 15.3672 126.07 15.0859 127.078 15.0859C128.727 15.0859 130.008 15.6289 130.922 16.7148C131.836 17.8008 132.293 19.3555 132.293 21.3789V22.2812H123.703C123.734 23.5312 124.098 24.543 124.793 25.3164C125.496 26.082 126.387 26.4648 127.465 26.4648C128.23 26.4648 128.879 26.3086 129.41 25.9961C129.941 25.6836 130.406 25.2695 130.805 24.7539L132.129 25.7852C131.066 27.418 129.473 28.2344 127.348 28.2344ZM127.078 16.8672C126.203 16.8672 125.469 17.1875 124.875 17.8281C124.281 18.4609 123.914 19.3516 123.773 20.5H130.125V20.3359C130.062 19.2344 129.766 18.3828 129.234 17.7812C128.703 17.1719 127.984 16.8672 127.078 16.8672ZM146.133 20.3945C144.203 19.8398 142.797 19.1602 141.914 18.3555C141.039 17.543 140.602 16.543 140.602 15.3555C140.602 14.0117 141.137 12.9023 142.207 12.0273C143.285 11.1445 144.684 10.7031 146.402 10.7031C147.574 10.7031 148.617 10.9297 149.531 11.3828C150.453 11.8359 151.164 12.4609 151.664 13.2578C152.172 14.0547 152.426 14.9258 152.426 15.8711H150.164C150.164 14.8398 149.836 14.0312 149.18 13.4453C148.523 12.8516 147.598 12.5547 146.402 12.5547C145.293 12.5547 144.426 12.8008 143.801 13.293C143.184 13.7773 142.875 14.4531 142.875 15.3203C142.875 16.0156 143.168 16.6055 143.754 17.0898C144.348 17.5664 145.352 18.0039 146.766 18.4023C148.188 18.8008 149.297 19.2422 150.094 19.7266C150.898 20.2031 151.492 20.7617 151.875 21.4023C152.266 22.043 152.461 22.7969 152.461 23.6641C152.461 25.0469 151.922 26.1562 150.844 26.9922C149.766 27.8203 148.324 28.2344 146.52 28.2344C145.348 28.2344 144.254 28.0117 143.238 27.5664C142.223 27.1133 141.438 26.4961 140.883 25.7148C140.336 24.9336 140.062 24.0469 140.062 23.0547H142.324C142.324 24.0859 142.703 24.9023 143.461 25.5039C144.227 26.0977 145.246 26.3945 146.52 26.3945C147.707 26.3945 148.617 26.1523 149.25 25.668C149.883 25.1836 150.199 24.5234 150.199 23.6875C150.199 22.8516 149.906 22.207 149.32 21.7539C148.734 21.293 147.672 20.8398 146.133 20.3945ZM160.277 28.2344C158.559 28.2344 157.16 27.6719 156.082 26.5469C155.004 25.4141 154.465 23.9023 154.465 22.0117V21.6133C154.465 20.3555 154.703 19.2344 155.18 18.25C155.664 17.2578 156.336 16.4844 157.195 15.9297C158.062 15.3672 159 15.0859 160.008 15.0859C161.656 15.0859 162.938 15.6289 163.852 16.7148C164.766 17.8008 165.223 19.3555 165.223 21.3789V22.2812H156.633C156.664 23.5312 157.027 24.543 157.723 25.3164C158.426 26.082 159.316 26.4648 160.395 26.4648C161.16 26.4648 161.809 26.3086 162.34 25.9961C162.871 25.6836 163.336 25.2695 163.734 24.7539L165.059 25.7852C163.996 27.418 162.402 28.2344 160.277 28.2344ZM160.008 16.8672C159.133 16.8672 158.398 17.1875 157.805 17.8281C157.211 18.4609 156.844 19.3516 156.703 20.5H163.055V20.3359C162.992 19.2344 162.695 18.3828 162.164 17.7812C161.633 17.1719 160.914 16.8672 160.008 16.8672ZM167.227 21.5547C167.227 19.5781 167.684 18.0078 168.598 16.8438C169.512 15.6719 170.723 15.0859 172.23 15.0859C173.777 15.0859 174.984 15.6328 175.852 16.7266L175.957 15.3203H177.938V27.6953C177.938 29.3359 177.449 30.6289 176.473 31.5742C175.504 32.5195 174.199 32.9922 172.559 32.9922C171.645 32.9922 170.75 32.7969 169.875 32.4062C169 32.0156 168.332 31.4805 167.871 30.8008L168.996 29.5C169.926 30.6484 171.062 31.2227 172.406 31.2227C173.461 31.2227 174.281 30.9258 174.867 30.332C175.461 29.7383 175.758 28.9023 175.758 27.8242V26.7344C174.891 27.7344 173.707 28.2344 172.207 28.2344C170.723 28.2344 169.52 27.6367 168.598 26.4414C167.684 25.2461 167.227 23.6172 167.227 21.5547ZM169.406 21.8008C169.406 23.2305 169.699 24.3555 170.285 25.1758C170.871 25.9883 171.691 26.3945 172.746 26.3945C174.113 26.3945 175.117 25.7734 175.758 24.5312V18.7422C175.094 17.5312 174.098 16.9258 172.77 16.9258C171.715 16.9258 170.891 17.3359 170.297 18.1562C169.703 18.9766 169.406 20.1914 169.406 21.8008ZM189.047 26.7461C188.203 27.7383 186.965 28.2344 185.332 28.2344C183.98 28.2344 182.949 27.8438 182.238 27.0625C181.535 26.2734 181.18 25.1094 181.172 23.5703V15.3203H183.34V23.5117C183.34 25.4336 184.121 26.3945 185.684 26.3945C187.34 26.3945 188.441 25.7773 188.988 24.543V15.3203H191.156V28H189.094L189.047 26.7461ZM200.59 17.2656C200.262 17.2109 199.906 17.1836 199.523 17.1836C198.102 17.1836 197.137 17.7891 196.629 19V28H194.461V15.3203H196.57L196.605 16.7852C197.316 15.6523 198.324 15.0859 199.629 15.0859C200.051 15.0859 200.371 15.1406 200.59 15.25V17.2656ZM209.953 28C209.828 27.75 209.727 27.3047 209.648 26.6641C208.641 27.7109 207.438 28.2344 206.039 28.2344C204.789 28.2344 203.762 27.8828 202.957 27.1797C202.16 26.4688 201.762 25.5703 201.762 24.4844C201.762 23.1641 202.262 22.1406 203.262 21.4141C204.27 20.6797 205.684 20.3125 207.504 20.3125H209.613V19.3164C209.613 18.5586 209.387 17.957 208.934 17.5117C208.48 17.0586 207.812 16.832 206.93 16.832C206.156 16.832 205.508 17.0273 204.984 17.418C204.461 17.8086 204.199 18.2812 204.199 18.8359H202.02C202.02 18.2031 202.242 17.5938 202.688 17.0078C203.141 16.4141 203.75 15.9453 204.516 15.6016C205.289 15.2578 206.137 15.0859 207.059 15.0859C208.52 15.0859 209.664 15.4531 210.492 16.1875C211.32 16.9141 211.75 17.918 211.781 19.1992V25.0352C211.781 26.1992 211.93 27.125 212.227 27.8125V28H209.953ZM206.355 26.3477C207.035 26.3477 207.68 26.1719 208.289 25.8203C208.898 25.4688 209.34 25.0117 209.613 24.4492V21.8477H207.914C205.258 21.8477 203.93 22.625 203.93 24.1797C203.93 24.8594 204.156 25.3906 204.609 25.7734C205.062 26.1562 205.645 26.3477 206.355 26.3477ZM217.23 15.3203L217.301 16.9141C218.27 15.6953 219.535 15.0859 221.098 15.0859C223.777 15.0859 225.129 16.5977 225.152 19.6211V28H222.984V19.6094C222.977 18.6953 222.766 18.0195 222.352 17.582C221.945 17.1445 221.309 16.9258 220.441 16.9258C219.738 16.9258 219.121 17.1133 218.59 17.4883C218.059 17.8633 217.645 18.3555 217.348 18.9648V28H215.18V15.3203H217.23ZM233.508 26.4648C234.281 26.4648 234.957 26.2305 235.535 25.7617C236.113 25.293 236.434 24.707 236.496 24.0039H238.547C238.508 24.7305 238.258 25.4219 237.797 26.0781C237.336 26.7344 236.719 27.2578 235.945 27.6484C235.18 28.0391 234.367 28.2344 233.508 28.2344C231.781 28.2344 230.406 27.6602 229.383 26.5117C228.367 25.3555 227.859 23.7773 227.859 21.7773V21.4141C227.859 20.1797 228.086 19.082 228.539 18.1211C228.992 17.1602 229.641 16.4141 230.484 15.8828C231.336 15.3516 232.34 15.0859 233.496 15.0859C234.918 15.0859 236.098 15.5117 237.035 16.3633C237.98 17.2148 238.484 18.3203 238.547 19.6797H236.496C236.434 18.8594 236.121 18.1875 235.559 17.6641C235.004 17.1328 234.316 16.8672 233.496 16.8672C232.395 16.8672 231.539 17.2656 230.93 18.0625C230.328 18.8516 230.027 19.9961 230.027 21.4961V21.9062C230.027 23.3672 230.328 24.4922 230.93 25.2812C231.531 26.0703 232.391 26.4648 233.508 26.4648ZM233.859 28.1055L233.719 28.7148C234.914 28.9258 235.512 29.6016 235.512 30.7422C235.512 31.5 235.199 32.0977 234.574 32.5352C233.949 32.9805 233.078 33.2031 231.961 33.2031L231.879 31.9492C232.496 31.9492 232.973 31.8477 233.309 31.6445C233.652 31.4414 233.824 31.1562 233.824 30.7891C233.824 30.4453 233.699 30.1914 233.449 30.0273C233.199 29.8633 232.691 29.7461 231.926 29.6758L232.301 28.1055H233.859ZM248.812 28C248.688 27.75 248.586 27.3047 248.508 26.6641C247.5 27.7109 246.297 28.2344 244.898 28.2344C243.648 28.2344 242.621 27.8828 241.816 27.1797C241.02 26.4688 240.621 25.5703 240.621 24.4844C240.621 23.1641 241.121 22.1406 242.121 21.4141C243.129 20.6797 244.543 20.3125 246.363 20.3125H248.473V19.3164C248.473 18.5586 248.246 17.957 247.793 17.5117C247.34 17.0586 246.672 16.832 245.789 16.832C245.016 16.832 244.367 17.0273 243.844 17.418C243.32 17.8086 243.059 18.2812 243.059 18.8359H240.879C240.879 18.2031 241.102 17.5938 241.547 17.0078C242 16.4141 242.609 15.9453 243.375 15.6016C244.148 15.2578 244.996 15.0859 245.918 15.0859C247.379 15.0859 248.523 15.4531 249.352 16.1875C250.18 16.9141 250.609 17.918 250.641 19.1992V25.0352C250.641 26.1992 250.789 27.125 251.086 27.8125V28H248.812ZM245.215 26.3477C245.895 26.3477 246.539 26.1719 247.148 25.8203C247.758 25.4688 248.199 25.0117 248.473 24.4492V21.8477H246.773C244.117 21.8477 242.789 22.625 242.789 24.1797C242.789 24.8594 243.016 25.3906 243.469 25.7734C243.922 26.1562 244.504 26.3477 245.215 26.3477Z" fill="white"/>
<path d="M22.8345 27.1687V28.3354C22.8345 28.6449 22.7116 28.9417 22.4927 29.1605C22.2739 29.3793 21.9772 29.5022 21.6677 29.5022H19.3342V30.669C19.3342 31.2879 19.0883 31.8814 18.6507 32.319C18.2131 32.7567 17.6195 33.0025 17.0006 33.0025H12.3335C11.7146 33.0025 11.1211 32.7567 10.6835 32.319C10.2459 31.8814 10 31.2879 10 30.669V27.6517C10.0001 27.0329 10.2461 26.4394 10.6837 26.0019L19.7122 16.9722C19.1582 15.0921 19.2102 13.0853 19.8607 11.2363C20.5112 9.38733 21.7273 7.79006 23.3365 6.67096C24.9457 5.55187 26.8663 4.96773 28.8261 5.00138C30.7858 5.03502 32.6853 5.68475 34.2551 6.85843C35.8249 8.03211 36.9854 9.67018 37.5721 11.5404C38.1588 13.4106 38.1418 15.418 37.5236 17.2781C36.9054 19.1381 35.7174 20.7563 34.128 21.9033C32.5386 23.0503 30.6284 23.6678 28.6683 23.6683H26.3348V26.0019C26.3348 26.3113 26.2119 26.6081 25.9931 26.8269C25.7743 27.0457 25.4775 27.1687 25.168 27.1687H22.8345ZM31.0019 14.3342C31.6208 14.3342 32.2143 14.0883 32.652 13.6507C33.0896 13.2131 33.3354 12.6195 33.3354 12.0006C33.3354 11.3817 33.0896 10.7882 32.652 10.3506C32.2143 9.91294 31.6208 9.66709 31.0019 9.66709C30.383 9.66709 29.7894 9.91294 29.3518 10.3506C28.9142 10.7882 28.6683 11.3817 28.6683 12.0006C28.6683 12.6195 28.9142 13.2131 29.3518 13.6507C29.7894 14.0883 30.383 14.3342 31.0019 14.3342Z" fill="white"/>
</svg>
