<svg width="298" height="40" viewBox="0 0 298 40" fill="none" xmlns="http://www.w3.org/2000/svg">
<rect width="298" height="40" rx="6" fill="#5470C4"/>
<path d="M57.8076 12.7891H52.3232V28H50.085V12.7891H44.6123V10.9375H57.8076V12.7891ZM65.2373 17.2656C64.9092 17.2109 64.5537 17.1836 64.1709 17.1836C62.749 17.1836 61.7842 17.7891 61.2764 19V28H59.1084V15.3203H61.2178L61.2529 16.7852C61.9639 15.6523 62.9717 15.0859 64.2764 15.0859C64.6982 15.0859 65.0186 15.1406 65.2373 15.25V17.2656ZM74.6006 28C74.4756 27.75 74.374 27.3047 74.2959 26.6641C73.2881 27.7109 72.085 28.2344 70.6865 28.2344C69.4365 28.2344 68.4092 27.8828 67.6045 27.1797C66.8076 26.4688 66.4092 25.5703 66.4092 24.4844C66.4092 23.1641 66.9092 22.1406 67.9092 21.4141C68.917 20.6797 70.3311 20.3125 72.1514 20.3125H74.2607V19.3164C74.2607 18.5586 74.0342 17.957 73.5811 17.5117C73.1279 17.0586 72.46 16.832 71.5771 16.832C70.8037 16.832 70.1553 17.0273 69.6318 17.418C69.1084 17.8086 68.8467 18.2812 68.8467 18.8359H66.667C66.667 18.2031 66.8896 17.5938 67.335 17.0078C67.7881 16.4141 68.3975 15.9453 69.1631 15.6016C69.9365 15.2578 70.7842 15.0859 71.7061 15.0859C73.167 15.0859 74.3115 15.4531 75.1396 16.1875C75.9678 16.9141 76.3975 17.918 76.4287 19.1992V25.0352C76.4287 26.1992 76.5771 27.125 76.874 27.8125V28H74.6006ZM71.0029 26.3477C71.6826 26.3477 72.3271 26.1719 72.9365 25.8203C73.5459 25.4688 73.9873 25.0117 74.2607 24.4492V21.8477H72.5615C69.9053 21.8477 68.5771 22.625 68.5771 24.1797C68.5771 24.8594 68.8037 25.3906 69.2568 25.7734C69.71 26.1562 70.292 26.3477 71.0029 26.3477ZM81.8779 15.3203L81.9482 16.9141C82.917 15.6953 84.1826 15.0859 85.7451 15.0859C88.4248 15.0859 89.7764 16.5977 89.7998 19.6211V28H87.6318V19.6094C87.624 18.6953 87.4131 18.0195 86.999 17.582C86.5928 17.1445 85.9561 16.9258 85.0889 16.9258C84.3857 16.9258 83.7686 17.1133 83.2373 17.4883C82.7061 17.8633 82.292 18.3555 81.9951 18.9648V28H79.8271V15.3203H81.8779ZM100.452 24.6367C100.452 24.0508 100.229 23.5977 99.7842 23.2773C99.3467 22.9492 98.5771 22.668 97.4756 22.4336C96.3818 22.1992 95.5107 21.918 94.8623 21.5898C94.2217 21.2617 93.7451 20.8711 93.4326 20.418C93.1279 19.9648 92.9756 19.4258 92.9756 18.8008C92.9756 17.7617 93.4131 16.8828 94.2881 16.1641C95.1709 15.4453 96.2959 15.0859 97.6631 15.0859C99.1006 15.0859 100.265 15.457 101.155 16.1992C102.054 16.9414 102.503 17.8906 102.503 19.0469H100.323C100.323 18.4531 100.069 17.9414 99.5615 17.5117C99.0615 17.082 98.4287 16.8672 97.6631 16.8672C96.874 16.8672 96.2568 17.0391 95.8115 17.3828C95.3662 17.7266 95.1436 18.1758 95.1436 18.7305C95.1436 19.2539 95.3506 19.6484 95.7646 19.9141C96.1787 20.1797 96.9248 20.4336 98.0029 20.6758C99.0889 20.918 99.9678 21.207 100.64 21.543C101.312 21.8789 101.808 22.2852 102.128 22.7617C102.456 23.2305 102.62 23.8047 102.62 24.4844C102.62 25.6172 102.167 26.5273 101.261 27.2148C100.354 27.8945 99.1787 28.2344 97.7334 28.2344C96.7178 28.2344 95.8193 28.0547 95.0381 27.6953C94.2568 27.3359 93.6436 26.8359 93.1982 26.1953C92.7607 25.5469 92.542 24.8477 92.542 24.0977H94.71C94.749 24.8242 95.0381 25.4023 95.5771 25.832C96.124 26.2539 96.8428 26.4648 97.7334 26.4648C98.5537 26.4648 99.21 26.3008 99.7021 25.9727C100.202 25.6367 100.452 25.1914 100.452 24.6367ZM113.272 28C113.147 27.75 113.046 27.3047 112.968 26.6641C111.96 27.7109 110.757 28.2344 109.358 28.2344C108.108 28.2344 107.081 27.8828 106.276 27.1797C105.479 26.4688 105.081 25.5703 105.081 24.4844C105.081 23.1641 105.581 22.1406 106.581 21.4141C107.589 20.6797 109.003 20.3125 110.823 20.3125H112.933V19.3164C112.933 18.5586 112.706 17.957 112.253 17.5117C111.8 17.0586 111.132 16.832 110.249 16.832C109.476 16.832 108.827 17.0273 108.304 17.418C107.78 17.8086 107.519 18.2812 107.519 18.8359H105.339C105.339 18.2031 105.562 17.5938 106.007 17.0078C106.46 16.4141 107.069 15.9453 107.835 15.6016C108.608 15.2578 109.456 15.0859 110.378 15.0859C111.839 15.0859 112.983 15.4531 113.812 16.1875C114.64 16.9141 115.069 17.918 115.101 19.1992V25.0352C115.101 26.1992 115.249 27.125 115.546 27.8125V28H113.272ZM109.675 26.3477C110.354 26.3477 110.999 26.1719 111.608 25.8203C112.218 25.4688 112.659 25.0117 112.933 24.4492V21.8477H111.233C108.577 21.8477 107.249 22.625 107.249 24.1797C107.249 24.8594 107.476 25.3906 107.929 25.7734C108.382 26.1562 108.964 26.3477 109.675 26.3477ZM123.585 26.4648C124.358 26.4648 125.034 26.2305 125.612 25.7617C126.19 25.293 126.511 24.707 126.573 24.0039H128.624C128.585 24.7305 128.335 25.4219 127.874 26.0781C127.413 26.7344 126.796 27.2578 126.022 27.6484C125.257 28.0391 124.444 28.2344 123.585 28.2344C121.858 28.2344 120.483 27.6602 119.46 26.5117C118.444 25.3555 117.937 23.7773 117.937 21.7773V21.4141C117.937 20.1797 118.163 19.082 118.616 18.1211C119.069 17.1602 119.718 16.4141 120.562 15.8828C121.413 15.3516 122.417 15.0859 123.573 15.0859C124.995 15.0859 126.175 15.5117 127.112 16.3633C128.058 17.2148 128.562 18.3203 128.624 19.6797H126.573C126.511 18.8594 126.198 18.1875 125.636 17.6641C125.081 17.1328 124.394 16.8672 123.573 16.8672C122.472 16.8672 121.616 17.2656 121.007 18.0625C120.405 18.8516 120.104 19.9961 120.104 21.4961V21.9062C120.104 23.3672 120.405 24.4922 121.007 25.2812C121.608 26.0703 122.468 26.4648 123.585 26.4648ZM123.937 28.1055L123.796 28.7148C124.991 28.9258 125.589 29.6016 125.589 30.7422C125.589 31.5 125.276 32.0977 124.651 32.5352C124.026 32.9805 123.155 33.2031 122.038 33.2031L121.956 31.9492C122.573 31.9492 123.05 31.8477 123.386 31.6445C123.729 31.4414 123.901 31.1562 123.901 30.7891C123.901 30.4453 123.776 30.1914 123.526 30.0273C123.276 29.8633 122.769 29.7461 122.003 29.6758L122.378 28.1055H123.937ZM130.487 21.543C130.487 20.3008 130.729 19.1836 131.214 18.1914C131.706 17.1992 132.386 16.4336 133.253 15.8945C134.128 15.3555 135.124 15.0859 136.241 15.0859C137.968 15.0859 139.362 15.6836 140.425 16.8789C141.495 18.0742 142.03 19.6641 142.03 21.6484V21.8008C142.03 23.0352 141.792 24.1445 141.315 25.1289C140.847 26.1055 140.171 26.8672 139.288 27.4141C138.413 27.9609 137.405 28.2344 136.265 28.2344C134.546 28.2344 133.151 27.6367 132.081 26.4414C131.019 25.2461 130.487 23.6641 130.487 21.6953V21.543ZM132.667 21.8008C132.667 23.207 132.991 24.3359 133.64 25.1875C134.296 26.0391 135.171 26.4648 136.265 26.4648C137.366 26.4648 138.241 26.0352 138.89 25.1758C139.538 24.3086 139.862 23.0977 139.862 21.543C139.862 20.1523 139.53 19.0273 138.866 18.168C138.21 17.3008 137.335 16.8672 136.241 16.8672C135.171 16.8672 134.308 17.293 133.651 18.1445C132.995 18.9961 132.667 20.2148 132.667 21.8008ZM140.319 10.375C140.319 11.2188 140.077 11.9023 139.593 12.4258C139.116 12.9492 138.519 13.2109 137.8 13.2109C137.479 13.2109 137.202 13.1719 136.968 13.0938C136.733 13.0156 136.425 12.8555 136.042 12.6133C135.667 12.3711 135.394 12.2266 135.222 12.1797C135.058 12.125 134.866 12.0977 134.647 12.0977C134.327 12.0977 134.054 12.2227 133.827 12.4727C133.601 12.7148 133.487 13.0273 133.487 13.4102L132.034 13.3281C132.034 12.4922 132.269 11.8008 132.737 11.2539C133.214 10.707 133.815 10.4336 134.542 10.4336C134.815 10.4336 135.062 10.4727 135.28 10.5508C135.499 10.6289 135.796 10.7812 136.171 11.0078C136.546 11.2344 136.831 11.3828 137.026 11.4531C137.229 11.5234 137.452 11.5586 137.694 11.5586C138.03 11.5586 138.308 11.4258 138.526 11.1602C138.753 10.8945 138.866 10.5859 138.866 10.2344L140.319 10.375ZM150.011 28.2344C148.292 28.2344 146.894 27.6719 145.815 26.5469C144.737 25.4141 144.198 23.9023 144.198 22.0117V21.6133C144.198 20.3555 144.437 19.2344 144.913 18.25C145.397 17.2578 146.069 16.4844 146.929 15.9297C147.796 15.3672 148.733 15.0859 149.741 15.0859C151.39 15.0859 152.671 15.6289 153.585 16.7148C154.499 17.8008 154.956 19.3555 154.956 21.3789V22.2812H146.366C146.397 23.5312 146.761 24.543 147.456 25.3164C148.159 26.082 149.05 26.4648 150.128 26.4648C150.894 26.4648 151.542 26.3086 152.073 25.9961C152.604 25.6836 153.069 25.2695 153.468 24.7539L154.792 25.7852C153.729 27.418 152.136 28.2344 150.011 28.2344ZM149.741 16.8672C148.866 16.8672 148.132 17.1875 147.538 17.8281C146.944 18.4609 146.577 19.3516 146.437 20.5H152.788V20.3359C152.726 19.2344 152.429 18.3828 151.897 17.7812C151.366 17.1719 150.647 16.8672 149.741 16.8672ZM164.858 24.6367C164.858 24.0508 164.636 23.5977 164.19 23.2773C163.753 22.9492 162.983 22.668 161.882 22.4336C160.788 22.1992 159.917 21.918 159.269 21.5898C158.628 21.2617 158.151 20.8711 157.839 20.418C157.534 19.9648 157.382 19.4258 157.382 18.8008C157.382 17.7617 157.819 16.8828 158.694 16.1641C159.577 15.4453 160.702 15.0859 162.069 15.0859C163.507 15.0859 164.671 15.457 165.562 16.1992C166.46 16.9414 166.909 17.8906 166.909 19.0469H164.729C164.729 18.4531 164.476 17.9414 163.968 17.5117C163.468 17.082 162.835 16.8672 162.069 16.8672C161.28 16.8672 160.663 17.0391 160.218 17.3828C159.772 17.7266 159.55 18.1758 159.55 18.7305C159.55 19.2539 159.757 19.6484 160.171 19.9141C160.585 20.1797 161.331 20.4336 162.409 20.6758C163.495 20.918 164.374 21.207 165.046 21.543C165.718 21.8789 166.214 22.2852 166.534 22.7617C166.862 23.2305 167.026 23.8047 167.026 24.4844C167.026 25.6172 166.573 26.5273 165.667 27.2148C164.761 27.8945 163.585 28.2344 162.14 28.2344C161.124 28.2344 160.226 28.0547 159.444 27.6953C158.663 27.3359 158.05 26.8359 157.604 26.1953C157.167 25.5469 156.948 24.8477 156.948 24.0977H159.116C159.155 24.8242 159.444 25.4023 159.983 25.832C160.53 26.2539 161.249 26.4648 162.14 26.4648C162.96 26.4648 163.616 26.3008 164.108 25.9727C164.608 25.6367 164.858 25.1914 164.858 24.6367Z" fill="white"/>
<path d="M26.697 12.7488C26.697 12.6055 26.5895 12.4883 26.458 12.4883H24.8301C24.7405 12.4883 24.6568 12.5437 24.618 12.6316L22.088 18.1274H21.9894L19.4593 12.6316C19.4395 12.5887 19.4092 12.5527 19.3718 12.5274C19.3344 12.5021 19.2913 12.4886 19.2473 12.4883H17.5835C17.5446 12.4883 17.5058 12.4981 17.47 12.5209C17.3535 12.5893 17.3116 12.7488 17.3744 12.8725L20.4779 19.1106H18.7753C18.6439 19.1106 18.5363 19.2278 18.5363 19.3711V20.2534C18.5363 20.3967 18.6439 20.5139 18.7753 20.5139H21.0455V21.7836H18.7753C18.6439 21.7836 18.5363 21.9008 18.5363 22.0441V22.9264C18.5363 23.0697 18.6439 23.1869 18.7753 23.1869H21.0455V25.251C21.0455 25.3943 21.153 25.5115 21.2844 25.5115H22.775C22.9064 25.5115 23.0139 25.3943 23.0139 25.251V23.1836H25.2931C25.4245 23.1836 25.532 23.0664 25.532 22.9232V22.0408C25.532 21.8976 25.4245 21.7804 25.2931 21.7804H23.0139V20.5106H25.2931C25.4245 20.5106 25.532 20.3934 25.532 20.2501V19.3678C25.532 19.2246 25.4245 19.1074 25.2931 19.1074H23.5725L26.6701 12.8693C26.685 12.8334 26.697 12.7911 26.697 12.7488V12.7488ZM11.4421 18.746C11.4982 15.7787 12.6062 12.9503 14.5337 10.8539C15.5045 9.79579 16.6336 8.9623 17.8911 8.38277C19.1935 7.7837 20.5765 7.47766 22.0013 7.47766C23.4291 7.47766 24.8122 7.78045 26.1115 8.38277C27.3691 8.9623 28.4982 9.79579 29.469 10.8539C29.7677 11.1795 30.0455 11.5214 30.3024 11.8762L28.8088 13.1493C28.7733 13.1793 28.7462 13.2196 28.7307 13.2656C28.7152 13.3117 28.712 13.3615 28.7213 13.4095C28.7307 13.4574 28.7523 13.5015 28.7836 13.5367C28.8149 13.5719 28.8548 13.5967 28.8985 13.6083L33.5822 14.8553C33.7315 14.8944 33.8779 14.7706 33.8779 14.6046L33.9018 9.34649C33.9018 9.12835 33.6718 9.00463 33.5165 9.14137L32.0886 10.359C29.7468 7.09348 26.0996 5 22.0043 5C14.9997 5 9.30332 11.1241 9.17488 18.7329C9.17408 18.7677 9.17967 18.8023 9.19133 18.8346C9.20298 18.867 9.22045 18.8965 9.24272 18.9213C9.26499 18.9462 9.29161 18.966 9.321 18.9795C9.35038 18.993 9.38195 18.9999 9.41384 18.9999H11.2061C11.3345 18.9999 11.4391 18.886 11.4421 18.746ZM34.6247 18.9999H32.8324C32.704 18.9999 32.5964 19.1139 32.5935 19.2539C32.5373 22.2212 31.4294 25.0496 29.5018 27.1459C28.54 28.1987 27.3997 29.0379 26.1444 29.6171C24.842 30.2161 23.459 30.5222 22.0342 30.5222C20.6094 30.5222 19.2234 30.2194 17.924 29.6171C16.6687 29.0379 15.5284 28.1987 14.5665 27.1459C14.2678 26.8203 13.99 26.4785 13.7331 26.1236L15.2237 24.8506C15.2593 24.8206 15.2863 24.7802 15.3018 24.7342C15.3173 24.6882 15.3206 24.6383 15.3112 24.5904C15.3018 24.5424 15.2802 24.4983 15.2489 24.4631C15.2176 24.428 15.1778 24.4031 15.1341 24.3915L10.4504 23.1445C10.301 23.1055 10.1546 23.2292 10.1546 23.3952L10.1307 28.6599C10.1307 28.878 10.3607 29.0017 10.5161 28.865L11.9439 27.6473C14.2917 30.9064 17.9389 32.9998 22.0342 32.9998C29.0388 32.9998 34.7352 26.8757 34.8636 19.2669C34.8644 19.2321 34.8588 19.1976 34.8472 19.1652C34.8355 19.1329 34.818 19.1034 34.7958 19.0785C34.7735 19.0536 34.7469 19.0338 34.7175 19.0203C34.6881 19.0069 34.6565 18.9999 34.6247 18.9999V18.9999Z" fill="white"/>
</svg>
