<svg width="41" height="40" viewBox="0 0 41 40" fill="none" xmlns="http://www.w3.org/2000/svg">
<path d="M38.6698 0H1.94628C1.06312 0 0.349609 0.715 0.349609 1.6V38.4C0.349609 39.285 1.06312 40 1.94628 40H38.6698C39.5529 40 40.2664 39.285 40.2664 38.4V1.6C40.2664 0.715 39.5529 0 38.6698 0ZM31.0506 14.485C31.0656 14.72 31.0656 14.965 31.0656 15.205C31.0656 22.545 25.4872 31 15.2935 31C12.15 31 9.2361 30.085 6.78121 28.51C7.23027 28.56 7.65938 28.58 8.11842 28.58C10.713 28.58 13.0981 27.7 14.9991 26.21C12.5642 26.16 10.5184 24.56 9.81988 22.36C10.6731 22.485 11.4415 22.485 12.3197 22.26C11.0659 22.0048 9.93901 21.3224 9.1304 20.3289C8.32179 19.3354 7.88135 18.092 7.88391 16.81V16.74C8.61738 17.155 9.48059 17.41 10.3837 17.445C9.6245 16.938 9.00187 16.2511 8.57104 15.4452C8.1402 14.6392 7.91447 13.7393 7.91385 12.825C7.91385 11.79 8.18329 10.845 8.66728 10.025C10.0589 11.7417 11.7954 13.1457 13.764 14.1458C15.7326 15.1459 17.8891 15.7198 20.0935 15.83C19.3101 12.055 22.1242 9 25.5072 9C27.1039 9 28.5409 9.67 29.5538 10.75C30.8062 10.515 32.0037 10.045 33.0714 9.415C32.6573 10.7 31.7891 11.785 30.6365 12.47C31.7542 12.35 32.8319 12.04 33.8299 11.605C33.0764 12.715 32.1334 13.7 31.0506 14.485Z" fill="white"/>
</svg>
